<?xml version="1.0" encoding="UTF-8"?>
<svg width="265px" height="97px" viewBox="0 0 265 97" version="1.1" xmlns="http://www.w3.org/2000/svg" xmlns:xlink="http://www.w3.org/1999/xlink">
    <title>logo/logo-claim@2x</title>
    <g id="–-Navbar" stroke="none" stroke-width="1" fill="none" fill-rule="evenodd">
        <g id="Navbar-XL" transform="translate(-50.000000, -50.000000)" fill-rule="nonzero">
            <g id="logo/logo-claim" transform="translate(50.000000, 50.000000)">
                <g id="g12" transform="translate(132.366913, 48.446707) scale(-1, 1) rotate(-180.000000) translate(-132.366913, -48.446707) translate(0.000000, 0.000000)">
                    <path d="M73.5832992,13.9163598 C73.5832992,17.299969 71.8930584,18.2038999 69.8823272,18.2038999 C67.6387384,18.2038999 66.4148353,16.5714952 66.4148353,14.0618364 C66.4148353,11.4645738 67.7262156,9.53992249 70.1158074,9.53992249 C71.8930584,9.53992249 73.5832992,10.5606741 73.5832992,13.9163598 Z M69.2421246,21.3557376 C72.6805092,21.3557376 73.817402,19.2539931 73.817402,19.2539931 L73.8751494,19.2539931 C73.8751494,19.2539931 73.8751494,19.4292943 73.8751494,19.634981 C73.8751494,20.3058003 74.3414871,21.0057585 75.5077984,21.0057585 L78.9460274,21.0057585 L78.9460274,17.8539208 L77.8091346,17.8539208 C77.4302741,17.8539208 77.1676868,17.650104 77.1676868,17.2714534 L77.1676868,7.03031051 C77.1676868,1.92466694 73.2045944,0 69.3283566,0 C67.4636283,0 65.4815373,0.524686621 64.0538839,1.28249891 L65.1907766,4.20174383 C65.1907766,4.20174383 67.0270204,3.20960137 69.299872,3.20960137 C71.5434608,3.20960137 73.4964446,4.17131154 73.4964446,6.85500931 L73.4964446,7.55499869 C73.4964446,7.90499338 73.5255518,8.34385409 73.5255518,8.34385409 L73.4678043,8.34385409 C72.5922537,7.08935195 71.3106032,6.41857944 69.3283566,6.41857944 C65.0740366,6.41857944 62.6553376,9.86070032 62.6553376,13.944969 C62.6553376,18.029222 64.9566739,21.3557376 69.2421246,21.3557376 M90.8298568,15.4910321 C90.7702415,17.2714534 89.5469611,18.4960686 88.0312078,18.4960686 C86.1372166,18.4960686 84.7964179,17.3579353 84.3890728,15.4910321 L90.8298568,15.4910321 Z M88.0312078,21.3557376 C92.2861504,21.3557376 94.617839,18.2331947 94.617839,14.2949637 C94.617839,13.8585338 94.5308288,12.9235941 94.5308288,12.9235941 L84.2723327,12.9235941 C84.5641829,10.2989533 86.4868143,8.92819142 88.7304031,8.92819142 C91.1198391,8.92819142 92.8983354,10.589891 92.8983354,10.589891 L94.4433515,8.02246855 C94.4433515,8.02246855 92.1704999,5.77641608 88.4689053,5.77641608 C83.5438746,5.77641608 80.4843504,9.33540443 80.4843504,13.5663651 C80.4843504,18.1460895 83.5731374,21.3557376 88.0312078,21.3557376 M98.1960005,17.2123964 C98.1960005,17.650104 97.9631429,17.8539208 97.5545526,17.8539208 L96.3902648,17.8539208 L96.3902648,21.0057585 L99.8000093,21.0057585 C101.1103,21.0057585 101.751125,20.3921264 101.751125,19.3428124 L101.751125,18.9038582 C101.751125,18.5831738 101.694,18.2617104 101.694,18.2617104 L101.751125,18.2617104 C102.392573,19.5174903 103.994714,21.3557376 106.997113,21.3557376 C110.29074,21.3557376 112.184731,19.634981 112.184731,15.6949892 L112.184731,9.88991718 C112.184731,9.48209647 112.417589,9.24775383 112.826179,9.24775383 L113.990623,9.24775383 L113.990623,6.12641077 L110.46585,6.12641077 C109.065592,6.12641077 108.483759,6.70953268 108.483759,8.11072687 L108.483759,14.937127 C108.483759,16.7467964 108.017422,17.9714116 106.152071,17.9714116 C104.171692,17.9714116 102.684423,16.7156317 102.160338,14.937127 C101.954876,14.3241805 101.868488,13.6528003 101.868488,12.9528109 L101.868488,6.12641077 L98.1960005,6.12641077 L98.1960005,17.2123964 M121.445022,8.66463191 C123.427113,8.66463191 124.825503,10.7645845 124.825503,12.5735994 L124.825503,12.9235941 L124.184056,12.9235941 C122.26158,12.9235941 119.201433,12.6624654 119.201433,10.589891 C119.201433,9.59774852 119.929736,8.66463191 121.445022,8.66463191 L121.445022,8.66463191 Z M124.301418,15.4618152 L124.767756,15.4618152 L124.767756,15.5792904 C124.767756,17.7085377 123.922713,18.4960686 122.027477,18.4960686 C121.356766,18.4960686 120.046476,18.3213907 120.046476,17.504565 L120.046476,16.7156317 L116.607001,16.7156317 L116.607001,18.292875 C116.607001,21.063569 120.511568,21.3557376 122.05783,21.3557376 C127.011345,21.3557376 128.467638,18.758475 128.467638,15.433206 L128.467638,9.88991718 C128.467638,9.48209647 128.701741,9.24775383 129.109086,9.24775383 L130.275242,9.24775383 L130.275242,6.12641077 L126.952352,6.12641077 C125.582602,6.12641077 125.058361,6.88422617 125.058361,7.76073218 C125.058361,8.13933602 125.087624,8.4010724 125.087624,8.4010724 L125.029254,8.4010724 C125.029254,8.4010724 123.892205,5.77641608 120.542076,5.77641608 C117.889897,5.77641608 115.471198,7.43934664 115.471198,10.4145898 C115.471198,15.0832113 121.881474,15.4618152 124.301418,15.4618152 M133.182848,17.2123964 C133.182848,17.650104 132.950613,17.8539208 132.541401,17.8539208 L131.375712,17.8539208 L131.375712,21.0057585 L134.902352,21.0057585 C136.27148,21.0057585 136.85518,20.3921264 136.85518,19.0506437 L136.85518,12.1949955 C136.85518,10.3853729 137.320428,9.16071094 139.156672,9.16071094 C141.837958,9.16071094 143.325227,11.5236153 143.325227,14.1774885 L143.325227,21.0057585 L147.026199,21.0057585 L147.026199,9.88991718 C147.026199,9.48209647 147.258434,9.24775383 147.665935,9.24775383 L148.83209,9.24775383 L148.83209,6.12641077 L145.422346,6.12641077 C144.141162,6.12641077 143.470452,6.73996497 143.470452,7.78934133 L143.470452,8.19716204 C143.470452,8.54715673 143.499714,8.86854227 143.499714,8.86854227 L143.440099,8.86854227 C142.741527,7.32247917 140.876176,5.77641608 138.311474,5.77641608 C135.134587,5.77641608 133.182848,7.3803052 133.182848,11.4359647 L133.182848,17.2123964 M159.544783,18.0585168 L157.709629,18.0585168 L157.709629,21.0057585 L159.544783,21.0057585 L159.544783,21.4420637 C159.544783,26.3152813 163.538851,26.9568058 165.607485,26.9568058 C166.363961,26.9568058 166.860495,26.8692331 166.860495,26.8692331 L166.860495,23.7192653 C166.860495,23.7192653 166.539849,23.7770757 166.102463,23.7770757 C165.053359,23.7770757 163.246222,23.5134227 163.246222,21.3557376 L163.246222,21.0057585 L166.423109,21.0057585 L166.423109,18.0585168 L163.246222,18.0585168 L163.246222,6.12641077 L159.544783,6.12641077 L159.544783,18.0585168 M177.639496,26.8114226 L180.232683,26.8114226 L180.232683,23.4270966 L177.639496,23.4270966 L177.639496,26.8114226 Z M172.423549,26.8114226 L174.987162,26.8114226 L174.987162,23.4270966 L172.423549,23.4270966 L172.423549,26.8114226 Z M169.537734,17.2123964 C169.537734,17.650104 169.305811,17.8539208 168.896442,17.8539208 L167.730598,17.8539208 L167.730598,21.0057585 L171.257705,21.0057585 C172.627455,21.0057585 173.211156,20.3921264 173.211156,19.0506437 L173.211156,12.1949955 C173.211156,10.3853729 173.675003,9.16071094 175.511714,9.16071094 C178.193623,9.16071094 179.680113,11.5236153 179.680113,14.1774885 L179.680113,21.0057585 L183.381552,21.0057585 L183.381552,9.88991718 C183.381552,9.48209647 183.613476,9.24775383 184.021288,9.24775383 L185.187132,9.24775383 L185.187132,6.12641077 L181.778321,6.12641077 C180.495737,6.12641077 179.826427,6.73996497 179.826427,7.78934133 L179.826427,8.19716204 C179.826427,8.54715673 179.854445,8.86854227 179.854445,8.86854227 L179.795297,8.86854227 C179.096413,7.32247917 177.231684,5.77641608 174.666515,5.77641608 C171.489629,5.77641608 169.537734,7.3803052 169.537734,11.4359647 L169.537734,17.2123964 M188.181904,17.2123964 C188.181904,17.650104 187.948424,17.8539208 187.540612,17.8539208 L186.376324,17.8539208 L186.376324,21.0057585 L189.757117,21.0057585 C191.066163,21.0057585 191.737029,20.4499368 191.737029,19.1960268 L191.737029,18.3213907 C191.737029,17.7674389 191.679437,17.3870743 191.679437,17.3870743 L191.737029,17.3870743 C192.407895,19.5174903 194.185458,21.2095754 196.457998,21.2095754 C196.778644,21.2095754 197.128864,21.1517649 197.128864,21.1517649 L197.128864,17.504565 C197.128864,17.504565 196.750627,17.5617522 196.226074,17.5617522 C194.650862,17.5617522 192.845282,16.6578213 192.174415,14.441048 C191.970509,13.7118417 191.853769,12.8949849 191.853769,12.020302 L191.853769,6.12641077 L188.181904,6.12641077 L188.181904,17.2123964 M208.572506,11.6703073 C208.572506,11.6703073 210.701845,9.21853696 213.586103,9.21853696 C215.15976,9.21853696 216.557528,10.0645951 216.557528,11.6703073 C216.557528,15.1988634 206.824518,14.9085179 206.824518,21.3557376 C206.824518,24.7095223 209.73835,27.1899174 213.732418,27.1899174 C216.151272,27.1899174 219.880729,26.0517841 219.880729,23.1056332 L219.880729,21.1810597 L216.442344,21.1810597 L216.442344,22.1135063 C216.442344,23.0771175 215.072594,23.7192653 213.701287,23.7192653 C211.953299,23.7192653 210.672271,22.8134645 210.672271,21.501744 C210.672271,17.9714116 220.405281,18.6713698 220.405281,11.87361 C220.405281,8.5763736 217.869686,5.77641608 213.526955,5.77641608 C208.9523,5.77641608 206.416706,8.98540974 206.416706,8.98540974 L208.572506,11.6703073 M224.18766,26.8399383 L227.392564,26.8399383 L227.392564,23.4270966 L224.18766,23.4270966 L224.18766,26.8399383 Z M224.011771,17.2123964 C224.011771,17.650104 223.779848,17.8539208 223.370479,17.8539208 L222.204635,17.8539208 L222.204635,21.0057585 L225.731742,21.0057585 C227.101492,21.0057585 227.685193,20.3921264 227.685193,19.0213489 L227.685193,9.88991718 C227.685193,9.48209647 227.917116,9.24775383 228.324928,9.24775383 L229.490773,9.24775383 L229.490773,6.12641077 L225.963665,6.12641077 C224.593915,6.12641077 224.011771,6.70953268 224.011771,8.11072687 L224.011771,17.2123964 M241.465192,15.4910321 C241.406044,17.2714534 240.182608,18.4960686 238.666543,18.4960686 C236.773797,18.4960686 235.432065,17.3579353 235.025809,15.4910321 L241.465192,15.4910321 Z M238.666543,21.3557376 C242.922108,21.3557376 245.253797,18.2331947 245.253797,14.2949637 C245.253797,13.8585338 245.165075,12.9235941 245.165075,12.9235941 L234.907512,12.9235941 C235.200141,10.2989533 237.122461,8.92819142 239.366984,8.92819142 C241.756264,8.92819142 243.533827,10.589891 243.533827,10.589891 L245.079465,8.02246855 C245.079465,8.02246855 242.805368,5.77641608 239.105486,5.77641608 C234.180611,5.77641608 231.120464,9.33540443 231.120464,13.5663651 C231.120464,18.1460895 234.208629,21.3557376 238.666543,21.3557376" id="Combined-Shape" fill="#AAAAAA"></path>
                    <path d="M39.3261547,93.6005567 C39.3261547,94.11789 39.0476907,94.3595719 38.5618962,94.3595719 L37.0704249,94.3595719 L37.0704249,96.5021422 L39.6387068,96.5021422 C41.1308007,96.5021422 41.755905,95.8782257 41.755905,94.394788 L41.755905,85.9658388 L44.6719167,85.9658388 C45.5742397,85.9658388 46.3037874,86.1380235 46.720316,86.8270741 L52.6217608,96.5021422 L55.3986183,96.5021422 L49.1153556,86.3114549 C48.4914966,85.3084204 47.8659254,84.9632718 47.8659254,84.9632718 L47.8659254,84.8933071 C47.8659254,84.8933071 48.4556963,84.6874645 49.0460898,83.5127128 L53.2815758,75.1512351 C53.6293056,74.4250985 54.1491881,74.3570038 55.0521337,74.3570038 L55.7458811,74.3570038 L55.7458811,72.2155243 L54.4611176,72.2155243 C52.4832292,72.2155243 51.8922131,72.4224576 51.0944892,74.0476945 L46.6510502,82.9254148 C46.2692323,83.7196461 45.4708858,83.822022 44.428786,83.822022 L41.755905,83.822022 L41.755905,72.2155243 L39.3261547,72.2155243 L39.3261547,93.6005567 M98.3899447,72.2144335 L94.9128023,72.2144335 C93.2759507,72.2144335 92.5468699,72.9399468 92.5468699,74.5681443 L92.5468699,82.6502309 C92.5468699,85.1957601 92.0093986,86.8928316 89.3931754,86.8928316 C86.8029464,86.8928316 84.6779656,85.2535706 83.9786146,82.7172349 C83.7645912,82.1067192 83.671666,81.5376526 83.671666,80.5453699 L83.671666,72.2144335 L80.0150553,72.2144335 L80.0150553,86.2111047 C80.0150553,86.6291786 79.817998,86.8270741 79.3960215,86.8270741 L77.8273461,86.8270741 L77.8273461,89.9818724 L81.2006676,89.9818724 C82.7705882,89.9818724 83.5664443,89.2831608 83.5664443,87.9031898 L83.5664443,87.2470179 C83.5664443,87.0905713 83.5609964,86.9445649 83.5524355,86.8136733 C84.5685412,88.5666853 86.7518921,90.2558098 90.0187466,90.2558098 C94.1801416,90.2558098 96.2036364,88.01585 96.2036364,83.4079995 L96.2036364,75.9833314 C96.2036364,75.5651017 96.3992927,75.3686086 96.8231371,75.3686086 L98.3899447,75.3686086 L98.3899447,72.2144335 M102.760538,86.4758484 L100.468852,86.4758484 L100.468852,89.9666018 L102.863892,89.9666018 L102.863892,94.7673615 L107.169266,94.7673615 L107.169266,89.9666018 L111.196799,89.9666018 L111.196799,86.4758484 L107.169266,86.4758484 L107.169266,79.2294422 C107.169266,76.3272334 109.459707,75.9102503 110.674426,75.9102503 C111.160843,75.9102503 111.472773,75.980215 111.472773,75.980215 L111.472773,72.1474295 C111.472773,72.1474295 110.918335,72.0452094 110.120611,72.0452094 C107.655683,72.0452094 102.760538,72.7694761 102.760538,78.676737 L102.760538,86.4758484 M123.348041,76.776472 C125.53326,76.776472 127.407794,78.3985924 127.407794,81.0597426 C127.407794,83.7531481 125.53326,85.4471031 123.348041,85.4471031 C121.160332,85.4471031 119.28533,83.7531481 119.28533,81.0597426 C119.28533,78.3985924 121.160332,76.776472 123.348041,76.776472 Z M123.312863,90.4200475 C128.971022,90.4200475 133.448549,86.6553569 133.448549,81.0597426 C133.448549,75.4982535 128.971022,71.798697 123.348041,71.798697 C117.722725,71.798697 113.244576,75.4982535 113.244576,81.0597426 C113.244576,86.6553569 117.722725,90.4200475 123.312863,90.4200475 M136.78358,84.1049971 C136.78358,84.5871144 136.505582,84.8658822 136.019165,84.8658822 L134.699847,84.8658822 L134.699847,89.8752893 L140.047321,89.8752893 C141.676234,89.8752893 142.546337,89.0791881 142.546337,87.8696878 L142.546337,87.6275384 C142.546337,87.4558211 142.509914,87.2135159 142.509914,87.2135159 L142.581048,87.2135159 C143.413949,88.5970709 145.078819,90.2874419 148.238584,90.2874419 C151.849121,90.2874419 154.660534,88.628703 154.660534,83.6222565 L154.660534,77.9847258 C154.660534,77.4990246 154.940865,77.2238406 155.424169,77.2238406 L156.743021,77.2238406 L156.743021,72.2155243 L151.189306,72.2155243 C149.419993,72.2155243 148.655112,72.9764094 148.655112,74.738615 L148.655112,82.5145088 C148.655112,84.1732477 147.995453,84.8658822 146.677847,84.8658822 C144.802067,84.8658822 143.655991,83.8280991 143.135485,82.3075755 C142.892977,81.616655 142.787756,80.8211771 142.787756,79.9580719 L142.787756,72.2155243 L136.78358,72.2155243 L136.78358,84.1049971 M182.690451,72.0025139 C177.938351,72.0025139 175.505488,74.9941652 175.402756,75.1208495 L175.312477,75.237717 L177.56167,78.3359515 L177.725106,78.15208 C177.743784,78.1259017 179.890245,75.7064334 182.690451,75.7064334 C183.188542,75.7064334 184.81512,75.8116142 184.81512,77.1855081 C184.81512,78.0132414 183.40957,78.5751402 181.781435,79.2233651 C179.099526,80.2946502 175.765429,81.6277184 175.765429,85.0862163 C175.765429,88.2361841 178.456677,90.2692106 182.621963,90.2692106 C184.93186,90.2692106 188.840318,89.4809006 188.840318,86.5275818 L188.840318,84.5567288 L184.678145,84.5567288 L184.678145,85.5884348 C184.678145,86.2475673 183.544988,86.598793 182.724694,86.598793 C181.245987,86.598793 180.361875,86.0954838 180.361875,85.2535706 C180.361875,84.2997762 181.8328,83.7581345 183.535649,83.1281409 C186.183314,82.149259 189.481611,80.9319675 189.481611,77.4198663 C189.481611,74.2303194 186.687631,72.0025139 182.690451,72.0025139 M202.153358,75.4982535 C204.584664,75.4982535 206.631507,77.4655226 206.631507,80.9562759 C206.631507,84.3058533 204.82904,86.4831721 202.223402,86.4831721 C199.932183,86.4831721 197.777939,84.8231866 197.777939,80.9215273 C197.777939,78.1916591 199.237969,75.4982535 202.153358,75.4982535 L202.153358,75.4982535 Z M193.509922,85.1927995 C193.509922,85.7101328 193.232859,85.9505681 192.74722,85.9505681 L191.357235,85.9505681 L191.357235,89.983119 L195.281258,89.983119 C196.912506,89.983119 197.502433,89.2586966 197.502433,88.2908781 C197.502433,87.8757649 197.502433,87.4509906 197.502433,87.4509906 L197.57092,87.4509906 C197.57092,87.4509906 199.065193,90.2478628 203.196236,90.2478628 C207.987249,90.2478628 211.075413,86.4831721 211.075413,81.024994 C211.075413,75.4282889 207.604341,71.798697 202.953416,71.798697 C199.446544,71.798697 197.883784,74.113452 197.883784,74.113452 L197.815296,74.113452 C197.815296,74.113452 197.883784,73.4937427 197.883784,72.5947982 L197.883784,65.3063197 L193.509922,65.3063197 L193.509922,85.1927995 M219.560083,92.8275174 L215.961375,92.8275174 L215.961375,96.8934144 L219.560083,96.8934144 L219.560083,92.8275174 Z M221.988276,72.1870086 L218.402021,72.1870086 C216.688277,72.1870086 215.891331,72.9795259 215.891331,74.6837652 L215.891331,86.0680589 C215.891331,86.4088444 215.757469,86.5409826 215.416588,86.5409826 L213.7044,86.5409826 L213.7044,89.9848331 L217.290655,89.9848331 C219.002843,89.9848331 219.801345,89.1887319 219.801345,87.4862066 L219.801345,76.1020688 C219.801345,75.7569202 219.932094,75.6291451 220.279202,75.6291451 L221.988276,75.6291451 L221.988276,72.1870086 M227.428364,87.2379801 L225.137146,87.2379801 L225.137146,89.9330998 L227.498408,89.9330998 L227.498408,94.7338595 L230.795148,94.7338595 L230.795148,89.9330998 L234.996235,89.9330998 L234.996235,87.2379801 L230.795148,87.2379801 L230.795148,78.9860462 C230.795148,75.4982535 233.226455,75.0477684 234.510596,75.0477684 C234.996235,75.0477684 235.309098,75.1177331 235.309098,75.1177331 L235.309098,72.1474295 C235.309098,72.1474295 234.857703,72.0774649 234.129245,72.0774649 C231.906514,72.0774649 227.428364,72.7694761 227.428364,78.6067723 L227.428364,87.2379801 M249.495354,81.1297072 C247.056264,81.1297072 241.340669,81.1297072 241.340669,77.3029989 C241.340669,75.7916688 242.523636,74.1651853 245.118379,74.1651853 C248.36064,74.1651853 250.367013,77.4429282 250.367013,80.4802357 L250.367013,81.1297072 L249.495354,81.1297072 Z M244.732358,71.8716223 C241.683107,71.8716223 238.598056,73.6903917 238.598056,77.1629137 C238.598056,81.226006 242.276147,83.2844317 249.531154,83.2844317 L250.367013,83.2844317 L250.367013,83.3472284 C250.367013,86.8105569 249.056411,88.0066564 245.843724,88.0066564 C244.990743,88.0066564 242.557879,87.7540669 242.557879,86.6291786 L242.557879,85.3802549 L239.991154,85.3802549 L239.991154,87.1831304 C239.991154,89.7121423 244.24205,90.2648475 245.879524,90.2648475 C250.695442,90.2648475 253.038026,88.2148363 253.038026,83.5554084 L253.038026,75.2285234 C253.038026,74.8104495 253.235706,74.612554 253.662196,74.612554 L255.279436,74.612554 L255.279436,72.2873588 L252.715823,72.2873588 C251.163958,72.2873588 250.471301,72.9703323 250.471301,74.5042568 C250.471301,74.7769475 250.47597,75.0186294 250.482196,75.2182391 C250.268951,74.8299274 249.915618,74.2929604 249.397292,73.7664335 C248.545868,72.9003677 247.043812,71.8716223 244.732358,71.8716223 M260.152945,93.7040234 C260.152945,94.1878547 259.872769,94.4630386 259.388687,94.4630386 L257.930214,94.4630386 L257.930214,96.5021422 L260.395764,96.5021422 C261.888481,96.5021422 262.512651,95.8782257 262.512651,94.394788 L262.512651,75.0125523 C262.512651,74.4950632 262.791271,74.2533813 263.27691,74.2533813 L264.733826,74.2533813 L264.733826,72.2155243 L262.268275,72.2155243 C260.777115,72.2155243 260.152945,72.8364801 260.152945,74.3235018 L260.152945,93.7040234 M5.50563364,40.0417548 L10.7650235,40.0417548 C13.746145,40.0417548 15.5689247,41.8873259 15.5689247,44.8150896 C15.5689247,47.7416068 13.6050919,49.6571425 10.7303595,49.6571425 L4.7340595,49.6571425 L4.7340595,40.8068472 C4.7340595,40.2834367 5.01496728,40.0417548 5.50563364,40.0417548 Z M10.4494517,51.7509401 C12.9392998,51.7509401 14.6223027,53.4905513 14.6223027,56.0348339 C14.6223027,58.5409399 13.0086123,60.2147937 10.4141962,60.2147937 L4.7340595,60.2147937 L4.7340595,51.7509401 L10.4494517,51.7509401 Z M2.2794669,60.2147937 L2.1896909e-15,60.2147937 L2.1896909e-15,62.3737253 L10.4847228,62.3737253 C14.342002,62.3737253 17.1474063,60.0401158 17.1474063,56.2096677 C17.1474063,53.5271697 15.7799908,51.7509401 13.9911747,50.8775505 L13.9911747,50.8075859 C16.515609,50.1105883 18.1288013,47.706235 18.1288013,44.7449692 C18.1288013,40.3898641 14.9032105,37.8790834 10.7650235,37.8790834 L4.41788065,37.8790834 C2.91120198,37.8790834 2.2794669,38.5072071 2.2794669,40.0051363 L2.2794669,60.2147937 M28.0431476,39.609501 C31.3769331,39.609501 33.3901548,43.0570913 33.3901548,46.0598061 L33.3901548,46.8510767 L32.3832327,46.8510767 C29.6404633,46.8510767 24.1566367,46.7840727 24.1566367,42.88366 C24.1566367,41.2651235 25.440155,39.609501 28.0431476,39.609501 L28.0431476,39.609501 Z M32.4173208,48.7155024 L33.3901548,48.7155024 L33.3901548,49.2005803 C33.3901548,52.8222252 32.0719258,53.9586444 28.8772944,53.9586444 C28.0090595,53.9586444 25.4742431,53.7169625 25.4742431,52.4418605 L25.4742431,51.3370734 L23.219136,51.3370734 L23.219136,52.9958123 C23.219136,55.406087 27.3847335,55.9252902 28.9120052,55.9252902 C34.431632,55.9252902 35.7511063,53.1338718 35.7511063,49.406267 L35.7511063,40.6881098 C35.7511063,40.1726464 36.0289477,39.9303412 36.5147421,39.9303412 L37.9721253,39.9303412 L37.9721253,37.8973147 L35.5777084,37.8973147 C34.0845248,37.8973147 33.4935087,38.5528633 33.4935087,39.9668038 C33.4935087,40.7247283 33.529309,41.3685901 33.529309,41.3685901 L33.4594206,41.3685901 C33.4935087,41.3685901 32.0365924,37.6070159 27.6619523,37.6070159 C24.745785,37.6070159 21.7257968,39.2984777 21.7257968,42.7454447 C21.7257968,48.5098157 29.3977996,48.7155024 32.4173208,48.7155024 M47.2956112,37.2631139 C42.6442192,37.2631139 40.4449916,40.2895139 40.3537787,40.4191588 L40.2631884,40.5463106 L41.8994175,42.506256 L42.0556935,42.2980761 C42.0745276,42.2706512 44.0055642,39.7276151 47.3314114,39.7276151 C49.0818901,39.7276151 50.8476228,40.5287026 50.8476228,42.3163074 C50.8476228,43.9111587 48.9444481,44.6737579 46.7410179,45.554627 C44.0256435,46.6399362 40.9477523,47.8687586 40.9477523,51.1045851 C40.9477523,54.1584099 43.4340048,56.0532211 47.4366332,56.0532211 C49.6777315,56.0532211 53.0121396,55.1522508 53.0121396,52.6743489 L53.0121396,50.970577 L50.3557579,50.970577 L50.3557579,52.0127232 C50.3557579,53.2044597 48.4368622,53.5879408 47.5071442,53.5879408 C45.8064746,53.5879408 43.7800224,53.1832677 43.7800224,51.245761 C43.7800224,49.6054092 45.680084,48.8597948 47.8793116,47.995443 C50.598266,46.9283651 53.6791147,45.717774 53.6791147,42.3833114 C53.6791147,39.4159685 50.9947153,37.2631139 47.2956112,37.2631139 M59.5732437,48.8110221 L68.7678485,48.8110221 C68.6504858,51.4120244 67.0167472,53.1558428 64.6873934,53.1558428 C62.0364595,53.1558428 60.0816079,51.4941433 59.5732437,48.8110221 L59.5732437,48.8110221 Z M65.2436988,37.4956023 C59.7868003,37.4956023 55.8260427,41.3717066 55.8260427,46.7159779 C55.8260427,52.1436148 59.4845213,55.9344837 64.7214815,55.9344837 C67.0793199,55.9344837 69.0469351,55.0975569 70.4118602,53.5150155 C71.6710966,52.0523023 72.364844,49.9828132 72.364844,47.6819265 C72.364844,47.2345579 72.2656928,46.330627 72.2608675,46.2922944 L72.254797,46.244145 L59.4255286,46.244145 C59.6761307,42.2829612 62.608486,40.5128086 65.4188089,40.5128086 C68.3877428,40.5128086 70.5061862,42.5160728 70.5273551,42.5372648 L70.5791877,42.5889981 L70.6174784,42.5251106 L72.1028793,40.1025259 L72.070659,40.0691797 C72.0438866,40.0447155 69.3946649,37.4956023 65.2436988,37.4956023 M82.2415222,37.8973147 L78.7654694,37.8973147 C77.1281508,37.8973147 76.3978248,38.6215814 76.3978248,40.2468183 L76.3978248,58.6838299 C76.3978248,59.1020596 76.2021684,59.3005784 75.7801919,59.3005784 L74.2119835,59.3005784 L74.2119835,62.4474298 L77.6892815,62.4474298 C79.3255105,62.4474298 80.0556808,61.7230073 80.0556808,60.0979262 L80.0556808,41.6607588 C80.0556808,41.2401917 80.2527381,41.0472825 80.6747146,41.0472825 L82.2415222,41.0472825 L82.2415222,37.8973147 M85.7437247,58.6948933 C85.7437247,59.2116033 85.4658833,59.4539086 84.9800889,59.4539086 L83.5907263,59.4539086 L83.5907263,62.4535069 L87.7921241,62.4535069 C89.4222826,62.4535069 90.1513634,61.7290844 90.1513634,60.1100804 L90.1513634,41.7788729 C90.1513634,41.2956648 90.4298274,41.0217275 90.916867,41.0217275 L92.2696511,41.0217275 L92.2696511,37.8790834 L88.1046762,37.8790834 C86.4380948,37.8790834 85.7437247,38.6642769 85.7437247,40.3198994 L85.7437247,58.6948933 M101.331639,40.8816424 C103.691968,40.8816424 105.357304,43.3651539 105.357304,45.5028936 L105.357304,45.9167603 L104.594291,45.9167603 C102.303228,45.9167603 98.6581356,45.6093209 98.6581356,43.1594672 C98.6581356,41.9847154 99.5257479,40.8816424 101.331639,40.8816424 L101.331639,40.8816424 Z M104.7322,48.9205658 L105.288038,48.9205658 L105.288038,49.0562879 C105.288038,51.5756389 104.282362,52.5057481 102.025387,52.5057481 C101.226417,52.5057481 99.6644351,52.3006846 99.6644351,51.3341128 L99.6644351,50.402757 L95.5681033,50.402757 L95.5681033,52.2640662 C95.5681033,55.5418091 100.219495,55.8857111 102.059475,55.8857111 C107.962009,55.8857111 109.696767,52.8161481 109.696767,48.8870638 L109.696767,42.3286174 C109.696767,41.8477467 109.975231,41.5706929 110.45978,41.5706929 L111.85101,41.5706929 L111.85101,37.8790834 L107.892743,37.8790834 C106.260873,37.8790834 105.635146,38.7769372 105.635146,39.8116038 C105.635146,40.2589725 105.669856,40.5706191 105.669856,40.5706191 L105.600591,40.5706191 C105.600591,40.5706191 104.247028,37.4681774 100.254206,37.4681774 C97.0955306,37.4681774 94.2146966,39.4312392 94.2146966,42.9512873 C94.2146966,48.4702365 101.850276,48.9205658 104.7322,48.9205658 M115.252194,49.8871377 C115.252194,50.3680084 114.974975,50.6450622 114.488558,50.6450622 L113.170952,50.6450622 L113.170952,55.6477689 L118.516091,55.6477689 C120.148117,55.6477689 121.016352,54.852291 121.016352,53.6440372 L121.016352,53.4036019 C121.016352,53.2300147 120.980396,52.9897352 120.980396,52.9897352 L121.050285,52.9897352 C121.882097,54.3701737 123.464158,55.9497544 126.623456,55.9497544 C130.232749,55.9497544 133.044784,54.2964693 133.044784,49.2950092 L133.131171,43.6432985 C133.131171,43.1594672 133.409013,42.8811668 133.893562,42.8811668 L135.213659,42.8811668 L135.213659,37.8790834 L129.658699,37.8790834 C127.888763,37.8790834 127.125128,38.6399685 127.125128,40.3990576 L127.125128,48.297896 C127.125128,49.9535184 126.465935,50.6450622 125.146617,50.6450622 C123.272705,50.6450622 122.126473,49.6083698 121.606123,48.0928325 C121.36346,47.4006655 121.258238,46.6064342 121.258238,45.745043 L121.258238,37.8790834 L115.252194,37.8790834 L115.252194,49.8871377 M149.508249,46.7099008 C149.508249,48.8323699 148.3712,50.9200903 146.02846,50.9200903 C144.167935,50.9200903 142.54945,49.4148373 142.54945,46.7099008 C142.54945,44.0743057 143.959359,42.3619636 146.02846,42.3619636 C147.820965,42.3619636 149.508249,43.6627764 149.508249,46.7099008 Z M144.650149,55.9192131 C148.234381,55.9192131 149.301385,54.6860275 149.301385,54.6860275 L149.371429,54.6860275 C149.371429,54.6860275 149.337964,55.028683 149.337964,55.4749609 L149.337964,56.6386492 C149.337964,57.1184291 149.061212,57.3904966 148.577908,57.3904966 L147.268863,57.3904966 L147.268863,62.3530009 L152.780551,62.3530009 C154.536478,62.3530009 155.295911,61.600686 155.295911,59.855621 L155.295911,43.5946816 C155.295911,43.113811 155.571418,42.8428343 156.053476,42.8428343 L157.364078,42.8428343 L157.364078,37.8790834 L152.058786,37.8790834 C150.368545,37.8790834 149.748422,38.7342416 149.748422,39.5560536 C149.748422,39.6917757 149.748422,39.8633372 149.748422,39.8633372 L149.681491,39.8633372 C149.681491,39.8633372 148.200293,37.4681774 144.546795,37.4681774 C139.723251,37.4681774 136.554302,41.2316215 136.554302,46.7099008 C136.554302,52.2908678 139.931204,55.9192131 144.650149,55.9192131 M70.3304535,80.2703418 C70.3304535,77.309076 68.26322,74.1377604 65.186574,74.1377604 C62.6553376,74.1377604 61.5019456,75.7020704 61.5019456,77.1551226 C61.5019456,80.8515626 67.1249264,80.8515626 69.5266591,80.8515626 L70.3304535,80.8515626 L70.3304535,80.2703418 Z M73.6575459,74.5773379 C73.2642096,74.5773379 73.0962596,74.7403291 73.0962596,75.1238102 L73.0962596,83.4203096 C73.0962596,86.3114549 72.3660892,90.1504732 66.0554315,90.1504732 C64.4156225,90.1504732 60.158812,89.5983913 60.158812,87.0754565 L60.158812,85.2535706 L62.8201746,85.2535706 L62.8201746,86.5349055 C62.8201746,87.5879593 65.1896871,87.827148 66.0207208,87.827148 C69.16243,87.827148 70.3304535,86.5744846 70.3304535,83.2175835 L70.3304535,83.0745377 L69.5607472,83.0745377 C62.3312672,83.0745377 58.6654728,81.0383948 58.6654728,77.0229844 C58.6654728,73.5789781 61.7542598,71.7821797 64.8053787,71.7821797 C67.1182333,71.7821797 68.6182655,72.7987709 69.4712464,73.6520592 C69.8975812,74.0830664 70.2185386,74.5224881 70.4392552,74.8846214 C70.4362978,74.7434455 70.4350526,74.5863756 70.4350526,74.4129443 C70.4350526,72.8942905 71.1603976,72.1870086 72.7198895,72.1870086 L75.3174342,72.1870086 L75.3174342,74.5773379 L73.6575459,74.5773379 M165.956149,71.8058649 C161.141787,71.8058649 158.266868,74.7859853 158.156354,74.9139162 L158.058293,75.0295371 L160.670158,78.7784896 L160.889629,78.5958647 C160.91142,78.5690631 163.23377,76.2463611 165.956149,76.2463611 C166.496266,76.2463611 167.294768,76.3959515 167.375708,76.9693812 C167.489335,77.7784157 166.419996,78.1428864 165.016002,78.6932543 C162.136413,79.8204799 158.372713,81.3969441 158.372713,84.8426645 C158.372713,88.5155753 161.426633,90.4212941 165.932801,90.4212941 C168.432595,90.4212941 172.657029,89.7043512 172.657029,86.3229858 L172.657029,84.3144236 L167.623197,84.3144236 L167.623197,85.2104075 C167.623197,85.8672027 166.572536,86.0862902 165.682199,86.0862902 C165.058028,86.0862902 164.008924,85.9103657 164.008924,85.1421569 C164.008924,84.4495224 164.959967,84.1816622 166.869834,83.5097521 C169.973564,82.4171192 173.307661,81.3818293 173.307661,77.2031161 C173.307661,74.2479275 170.281758,71.8058649 165.956149,71.8058649" id="Combined-Shape" fill="#282828"></path>
                </g>
            </g>
        </g>
    </g>
</svg>